<?xml version="1.0" standalone="no"?>
<!DOCTYPE svg PUBLIC "-//W3C//DTD SVG 20010904//EN"
 "http://www.w3.org/TR/2001/REC-SVG-20010904/DTD/svg10.dtd">
<svg version="1.0" xmlns="http://www.w3.org/2000/svg"
 width="1536.000000pt" height="1024.000000pt" viewBox="0 0 1536.000000 1024.000000"
 preserveAspectRatio="xMidYMid meet">

<g transform="translate(0.000000,1024.000000) scale(0.100000,-0.100000)"
fill="#000000" stroke="none">
<path d="M2580 7293 c-140 -15 -318 -69 -440 -135 -386 -206 -626 -622 -704
-1223 -20 -149 -39 -522 -33 -632 2 -50 0 -83 -6 -83 -5 0 -25 14 -44 31 -19
16 -40 28 -46 26 -32 -10 -32 -152 -1 -164 9 -3 29 7 48 26 17 17 37 31 42 31
7 0 13 -86 17 -247 23 -904 205 -1391 620 -1660 198 -129 432 -193 705 -193
174 0 312 19 466 65 255 74 412 142 886 381 378 191 456 220 616 231 172 11
308 -21 578 -139 194 -84 350 -139 482 -169 131 -29 342 -32 459 -5 205 46
365 177 365 297 0 90 -47 162 -127 197 -27 11 -106 30 -176 41 -70 12 -152 31
-181 41 -152 57 -274 196 -307 351 -24 112 7 276 70 364 32 46 112 104 154
112 20 4 25 8 15 14 -9 6 -7 9 10 9 21 0 22 4 22 75 l0 75 -70 -2 -70 -1 0
-68 0 -68 43 -4 c23 -2 -12 -4 -78 -5 l-119 -2 -33 -37 c-18 -21 -47 -71 -64
-112 -89 -213 -74 -432 42 -606 112 -167 277 -261 543 -310 93 -17 140 -35
149 -58 13 -35 -53 -82 -173 -123 -45 -16 -84 -19 -220 -19 -149 0 -175 3
-275 29 -125 32 -274 86 -485 176 -251 107 -407 139 -585 120 -180 -19 -224
-36 -625 -236 -379 -189 -495 -239 -735 -320 -206 -68 -310 -90 -389 -80 -109
14 -196 83 -196 155 0 82 44 158 176 306 157 175 203 237 253 340 70 142 82
199 88 400 3 94 10 176 15 183 7 7 36 12 77 12 92 0 111 15 111 84 l0 54 -35
4 -35 4 0 -41 c0 -46 -5 -56 -26 -48 -9 3 -14 20 -14 45 l0 40 -45 -3 c-25 -2
-44 1 -42 6 1 6 21 10 45 10 l42 0 0 63 c0 60 -1 62 -26 62 -31 0 -28 23 4 28
20 3 22 9 22 62 l0 59 -32 3 c-40 4 -44 22 -5 26 26 3 27 5 27 63 l0 59 -35 0
c-24 0 -35 5 -35 15 0 11 11 15 41 15 33 0 40 3 35 16 -3 9 -6 33 -6 55 l0 39
-45 0 c-33 0 -45 4 -45 15 0 11 12 15 51 15 l50 0 -3 53 -3 52 -67 0 c-92 0
-92 19 0 23 55 2 72 6 72 17 0 8 7 15 15 15 8 0 15 -7 15 -15 0 -10 11 -15 35
-15 l35 0 0 53 c0 28 -3 62 -6 75 -9 32 -54 52 -117 52 -51 0 -55 2 -67 30 -8
19 -11 53 -7 91 10 115 95 216 242 285 103 49 175 65 315 71 178 7 304 -20
695 -152 622 -210 878 -232 1347 -114 134 33 148 34 188 14 36 -19 60 -62 60
-109 0 -46 -35 -138 -66 -175 -13 -16 -24 -34 -24 -40 0 -8 -48 -11 -155 -11
-158 0 -192 -6 -213 -41 -12 -18 -9 -19 53 -19 59 0 65 2 65 21 0 12 5 19 13
16 6 -2 11 -11 9 -21 -2 -14 8 -16 68 -16 63 0 70 2 70 20 0 11 5 20 11 20 6
0 13 -9 16 -20 5 -17 14 -20 69 -20 57 0 64 2 64 20 0 11 5 20 10 20 6 0 10
-10 10 -22 0 -22 4 -23 75 -24 72 0 75 1 75 23 0 13 5 23 10 23 6 0 10 -11 10
-25 0 -24 2 -25 74 -25 l74 0 6 31 c3 18 10 28 17 24 6 -4 8 -18 5 -31 -6 -24
-6 -24 78 -24 l84 0 4 30 c4 26 1 31 -21 36 -72 14 -100 27 -139 60 -154 131
-130 399 53 593 112 118 225 164 502 200 208 28 237 42 268 130 21 60 19 89
-10 148 -69 137 -258 239 -517 277 -313 47 -567 -3 -1281 -253 -215 -76 -334
-101 -508 -108 -280 -11 -444 31 -845 220 -517 244 -833 352 -1147 392 -107
14 -288 18 -377 8z m663 -1600 c88 -4 127 -10 127 -18 0 -12 -199 -25 -371
-25 -80 0 -82 -3 -74 -104 9 -103 12 -476 5 -511 -4 -18 -1 -39 8 -52 9 -14
11 -30 6 -40 -12 -29 -15 -81 -5 -88 6 -3 7 -15 2 -29 -7 -17 -5 -25 10 -34
21 -13 25 -42 8 -59 -6 -6 -9 -23 -7 -39 l3 -29 108 -3 c59 -1 107 -6 107 -10
-1 -31 -22 -37 -140 -40 l-120 -4 -10 27 c-5 14 -10 49 -10 77 0 33 -5 55 -15
62 -13 9 -15 67 -16 396 0 561 -3 509 24 520 27 11 186 12 360 3z m-193 -112
c0 -23 -14 -41 -32 -41 -17 0 -18 3 -8 15 6 8 9 19 5 25 -3 6 3 10 14 10 12 0
21 -4 21 -9z m-7 -113 c-2 -5 -3 -26 -3 -48 0 -28 -4 -40 -14 -40 -17 0 -26
22 -26 67 0 30 3 34 23 31 12 -2 21 -6 20 -10z m4 -192 c3 -29 -1 -43 -16 -57
-17 -16 -20 -16 -25 -3 -8 22 -8 89 1 98 17 17 36 -1 40 -38z m-1 -141 c4 -27
-15 -95 -26 -95 -6 0 -10 27 -10 61 0 51 3 60 17 57 9 -2 17 -12 19 -23z m4
-196 c0 -45 -15 -79 -34 -79 -12 0 -6 118 7 123 24 10 27 6 27 -44z m18 -166
c-3 -44 -5 -48 -30 -51 -26 -3 -28 -1 -28 31 0 25 7 39 23 50 34 24 38 21 35
-30z m-193 -396 c62 -62 59 -166 -6 -296 -99 -199 -286 -390 -476 -488 -99
-51 -164 -58 -184 -21 -17 32 -5 149 26 248 72 227 262 482 417 559 49 25 74
31 126 31 59 0 66 -2 97 -33z"/>
<path d="M2790 4330 c-11 -11 -20 -24 -20 -29 0 -16 30 -41 49 -41 40 0 57 61
22 80 -26 13 -28 13 -51 -10z"/>
<path d="M2482 4166 c-127 -145 -202 -308 -202 -441 0 -100 75 -100 220 -2 65
45 156 133 206 200 50 67 50 69 -20 145 -40 45 -151 132 -166 132 -4 0 -21
-15 -38 -34z m140 -83 c33 -31 37 -63 9 -63 -24 0 -51 36 -51 67 0 30 8 29 42
-4z"/>
<path d="M2243 3614 c-8 -21 13 -42 28 -27 13 13 5 43 -11 43 -6 0 -13 -7 -17
-16z"/>
<path d="M7314 6659 c-22 -11 -44 -48 -44 -75 0 -9 7 -32 16 -51 13 -25 22
-33 38 -31 29 4 68 82 64 128 -3 29 -7 35 -28 37 -14 1 -35 -3 -46 -8z"/>
<path d="M4644 5905 c-8 -21 2 -45 19 -45 20 0 40 27 33 45 -7 19 -45 20 -52
0z"/>
<path d="M5968 5899 c-21 -12 -24 -49 -6 -67 18 -18 56 -14 68 7 14 27 13 37
-6 55 -18 18 -32 20 -56 5z"/>
<path d="M3310 5875 c-26 -32 13 -81 48 -59 34 22 22 74 -18 74 -10 0 -23 -7
-30 -15z"/>
<path d="M12304 5857 c-23 -20 -26 -28 -20 -59 3 -19 15 -43 26 -53 22 -19 27
-55 9 -55 -6 0 -56 14 -110 31 -123 39 -143 36 -234 -37 -110 -87 -135 -97
-240 -96 -109 2 -125 -2 -118 -28 5 -19 15 -20 284 -20 l279 0 0 23 c0 13 8
31 18 40 23 21 75 22 92 1 20 -23 16 -75 -5 -90 -25 -19 -70 -18 -86 2 -9 12
-24 14 -53 10 -23 -3 -150 -6 -283 -8 l-243 -2 0 -43 0 -43 398 6 c218 4 394
3 390 -1 -10 -10 -311 -24 -565 -25 l-223 -1 0 -46 0 -46 348 7 c191 3 445 9
565 13 l217 6 0 28 c0 37 24 59 65 59 26 0 39 -6 51 -26 37 -56 -20 -111 -90
-86 -26 10 -74 10 -213 2 -158 -10 -902 -31 -928 -27 -5 1 -11 -18 -13 -42
l-3 -44 298 6 c164 4 486 10 716 14 289 4 415 9 407 17 -16 16 -12 71 8 89 24
22 65 21 85 -1 20 -22 22 -77 5 -89 -8 -5 9 -10 42 -14 40 -4 23 -6 -64 -7
-65 -1 -261 -7 -435 -13 -174 -6 -482 -13 -686 -17 l-370 -7 -3 -44 -3 -44
308 6 c169 4 614 9 988 11 536 4 611 3 355 -4 -320 -8 -1480 -34 -1592 -34
l-58 -1 0 -47 0 -47 53 -4 52 -3 -52 -2 c-37 -1 -53 -6 -53 -16 0 -10 28 -15
118 -19 138 -7 211 -25 307 -75 68 -36 174 -130 227 -202 l26 -35 78 1 c101 2
241 32 424 89 244 77 360 106 458 112 107 7 113 4 161 -81 35 -63 97 -120 159
-148 35 -16 68 -22 132 -22 77 -1 92 2 152 32 74 36 133 96 170 170 19 38 23
64 23 132 0 74 -4 93 -29 145 -42 85 -109 149 -180 171 -31 10 -56 22 -56 26
0 10 32 41 79 76 42 32 42 71 0 106 -42 36 -110 36 -145 1 -29 -29 -27 -48 13
-107 27 -40 24 -58 -9 -58 -31 0 -191 50 -207 65 -15 14 -1 31 68 83 37 28 40
60 8 98 -33 38 -110 45 -149 14 -40 -31 -35 -72 15 -128 19 -20 19 -24 6 -38
-14 -14 -26 -12 -118 15 -56 17 -106 33 -112 36 -21 13 -6 43 36 73 52 36 65
71 41 108 -31 47 -114 59 -160 23 -35 -27 -33 -61 5 -114 52 -72 33 -79 -111
-37 -79 23 -96 32 -98 49 -2 14 5 26 20 34 59 30 79 68 62 114 -10 25 -58 45
-108 45 -36 0 -48 -5 -65 -26 -28 -35 -27 -44 9 -89 50 -63 36 -89 -36 -66
-16 6 -62 19 -101 31 -85 24 -95 45 -37 80 73 46 82 103 21 140 -42 26 -97 26
-131 -1 -33 -26 -33 -56 0 -104 24 -36 28 -71 8 -69 -5 1 -55 14 -111 29 -91
25 -103 31 -103 51 0 15 12 29 34 42 49 29 69 63 57 95 -23 59 -116 78 -167
34z m258 -344 c27 -24 23 -68 -8 -92 -15 -12 -33 -21 -41 -21 -21 0 -63 46
-63 70 0 49 73 78 112 43z m858 -253 c27 -27 26 -75 -2 -94 -43 -31 -86 -13
-102 41 -5 17 -1 29 18 48 30 30 59 32 86 5z m292 -87 c21 -19 24 -75 5 -91
-6 -6 -24 -13 -39 -17 -36 -9 -83 34 -72 68 16 54 68 74 106 40z"/>
<path d="M5312 5788 c-29 -29 -2 -72 40 -66 17 2 24 11 26 32 5 41 -37 63 -66
34z"/>
<path d="M3872 5778 c-32 -32 8 -80 48 -58 34 18 19 70 -20 70 -9 0 -21 -5
-28 -12z"/>
<path d="M4532 5778 c-32 -32 8 -80 48 -58 34 18 19 70 -20 70 -9 0 -21 -5
-28 -12z"/>
<path d="M3855 5692 c-46 -6 -95 -61 -95 -109 0 -16 10 -18 116 -16 64 1 119
5 122 7 9 9 -8 55 -31 81 -25 28 -67 42 -112 37z"/>
<path d="M4474 5656 c-24 -24 -34 -43 -34 -65 l0 -31 120 0 c66 0 120 3 120 8
0 4 -5 24 -10 44 -15 53 -51 78 -112 78 -43 0 -54 -4 -84 -34z"/>
<path d="M5268 5670 c-25 -19 -58 -76 -58 -99 0 -7 41 -11 125 -11 l124 0 -14
48 c-8 26 -24 55 -36 65 -30 24 -109 23 -141 -3z"/>
<path d="M6628 5590 l4 -30 84 0 c83 0 84 0 84 25 0 14 4 25 10 25 5 0 12 -11
16 -25 6 -24 9 -25 94 -25 l88 0 4 30 5 30 -197 0 -197 0 5 -30z"/>
<path d="M7038 5590 l4 -30 98 0 98 0 4 30 5 30 -107 0 -107 0 5 -30z"/>
<path d="M7268 5590 l4 -30 114 0 114 0 0 25 c0 14 5 25 10 25 6 0 10 -11 10
-25 l0 -25 124 0 124 0 4 30 5 30 -257 0 -257 0 5 -30z"/>
<path d="M7790 5590 l0 -30 133 0 132 0 0 30 0 30 -132 0 -133 0 0 -30z"/>
<path d="M8078 5590 l4 -30 142 0 141 0 1 30 1 30 -147 0 -147 0 5 -30z"/>
<path d="M8388 5590 l4 -30 148 0 148 0 4 30 5 30 -157 0 -157 0 5 -30z"/>
<path d="M8715 5590 l0 -30 163 0 162 0 0 30 0 30 -162 0 -163 0 0 -30z"/>
<path d="M9060 5605 c6 -7 8 -20 4 -28 -5 -14 15 -16 169 -19 l175 -3 5 28 4
27 -151 1 c-83 1 -166 3 -184 5 -26 2 -31 0 -22 -11z"/>
<path d="M9430 5587 c0 -24 2 -24 122 -30 66 -4 147 -7 180 -7 57 0 58 0 58
29 l0 29 -180 2 -180 1 0 -24z"/>
<path d="M9810 5578 l0 -28 184 0 184 0 4 25 5 24 -188 3 -189 3 0 -27z"/>
<path d="M10210 5575 l0 -25 145 -2 c260 -4 238 -5 240 18 1 20 -5 21 -118 28
-66 3 -153 6 -194 6 -71 0 -73 -1 -73 -25z"/>
<path d="M10622 5568 c3 -23 3 -23 222 -26 121 -1 217 1 213 4 -3 4 -2 15 4
25 9 18 1 19 -216 19 l-226 0 3 -22z"/>
<path d="M11083 5576 c4 -10 7 -22 7 -26 0 -5 106 -11 235 -12 l234 -3 10 23
11 22 -153 0 c-83 0 -197 3 -251 7 -92 6 -99 5 -93 -11z"/>
<path d="M3445 5549 c-5 -7 -25 -9 -59 -6 -28 3 -43 3 -33 0 13 -3 17 -16 17
-59 l0 -54 35 0 35 0 0 55 0 55 134 0 c74 0 142 3 152 7 15 5 16 1 10 -42 -4
-26 -10 -54 -13 -61 -4 -11 20 -14 130 -14 l135 0 7 55 6 55 220 0 219 0 0
-55 0 -55 123 0 122 0 -3 55 -4 55 266 0 266 0 0 -55 0 -55 120 0 120 0 0 55
0 55 80 0 80 0 0 -55 0 -55 70 0 70 0 0 59 0 59 -372 2 c-205 1 -447 1 -538 1
-221 -1 -356 -1 -627 1 -126 1 -275 1 -333 0 -58 -2 -178 0 -267 3 -117 4
-163 3 -168 -6z"/>
<path d="M5770 5490 l0 -60 70 0 70 0 0 60 0 60 -70 0 -70 0 0 -60z"/>
<path d="M5939 5543 c0 -5 -2 -32 -4 -60 l-3 -53 69 0 69 0 0 60 0 60 -65 0
c-36 0 -65 -3 -66 -7z"/>
<path d="M6090 5490 l0 -60 75 0 75 0 0 60 0 60 -75 0 -75 0 0 -60z"/>
<path d="M6260 5491 l0 -61 75 0 75 0 0 58 0 57 -75 3 -75 3 0 -60z"/>
<path d="M6434 5541 c-2 -2 -4 -28 -4 -58 l0 -53 85 0 85 0 0 58 0 57 -81 0
c-44 0 -82 -2 -85 -4z"/>
<path d="M6629 5540 c0 -3 -1 -29 -2 -58 l-2 -52 88 0 87 0 0 54 0 55 -85 3
c-47 2 -85 1 -86 -2z"/>
<path d="M7270 5488 l0 -58 115 0 115 0 0 54 0 55 -115 3 -115 3 0 -57z"/>
<path d="M7643 5543 l-123 -4 0 -54 0 -55 43 0 c34 0 44 4 52 23 15 34 62 35
77 3 9 -20 18 -26 45 -26 l33 0 0 60 c0 33 -1 59 -2 58 -2 -1 -58 -4 -125 -5z"/>
<path d="M7796 5540 c-2 -3 -4 -29 -5 -57 l-2 -53 135 0 136 0 0 43 c0 23 -4
47 -8 54 -7 12 -251 24 -256 13z"/>
<path d="M6820 5485 l0 -55 95 0 95 0 0 55 0 55 -95 0 -95 0 0 -55z"/>
<path d="M7040 5485 l0 -55 100 0 100 0 0 55 0 55 -100 0 -100 0 0 -55z"/>
<path d="M8080 5485 l0 -55 140 0 140 0 0 55 0 55 -140 0 -140 0 0 -55z m158
38 c-26 -2 -71 -2 -100 0 -29 2 -8 3 47 3 55 0 79 -1 53 -3z"/>
<path d="M8390 5485 l0 -55 150 0 150 0 0 55 0 55 -150 0 -150 0 0 -55z"/>
<path d="M8710 5485 l0 -55 164 0 164 0 -1 53 -2 52 -162 3 -163 2 0 -55z"/>
<path d="M9060 5486 l0 -56 165 0 c91 0 168 0 173 0 4 0 8 24 10 53 l3 53
-176 3 -175 3 0 -56z"/>
<path d="M9430 5481 l0 -61 174 0 174 0 4 55 3 55 -110 0 c-60 0 -140 3 -177
6 l-68 6 0 -61z"/>
<path d="M9810 5475 l0 -55 185 0 185 0 0 55 0 55 -185 0 -185 0 0 -55z"/>
<path d="M10210 5475 l0 -55 190 0 190 0 0 49 0 48 -92 7 c-50 3 -135 6 -190
6 l-98 0 0 -55z"/>
<path d="M10620 5470 l0 -50 220 0 220 0 0 50 0 50 -220 0 -220 0 0 -50z"/>
<path d="M11090 5474 l0 -49 235 3 235 3 0 39 0 40 -113 0 c-63 0 -169 3 -235
7 l-122 6 0 -49z"/>
<path d="M3348 5413 c7 -3 16 -2 19 1 4 3 -2 6 -13 5 -11 0 -14 -3 -6 -6z"/>
<path d="M3463 5407 c12 -5 75 -7 140 -5 l118 3 -7 -52 -6 -53 130 0 130 0 7
50 7 50 231 -2 232 -3 0 -48 0 -47 123 0 122 0 0 49 0 48 61 7 c34 3 151 6
260 6 l199 0 0 -55 0 -55 120 0 120 0 0 55 0 55 80 0 80 0 0 -55 0 -55 70 0
70 0 0 58 0 58 -1154 -1 c-635 0 -1145 -4 -1133 -8z"/>
<path d="M5770 5361 l0 -61 70 0 70 0 0 55 0 55 -54 0 c-30 0 -61 3 -70 6 -14
5 -16 -3 -16 -55z"/>
<path d="M7878 5413 l-88 -4 0 -49 0 -50 129 0 c76 0 132 4 136 10 3 6 3 30
-1 55 l-6 45 -42 -2 c-22 -1 -80 -4 -128 -5z"/>
<path d="M8080 5366 l0 -56 140 0 140 0 0 50 0 50 -117 0 c-65 0 -128 3 -140
6 -22 6 -23 4 -23 -50z"/>
<path d="M5930 5355 l0 -55 70 0 70 0 0 55 0 55 -70 0 -70 0 0 -55z"/>
<path d="M6090 5355 l0 -55 75 0 75 0 0 55 0 55 -75 0 -75 0 0 -55z"/>
<path d="M6260 5355 l0 -55 75 0 75 0 0 55 0 55 -75 0 -75 0 0 -55z"/>
<path d="M6430 5355 l0 -55 85 0 85 0 0 55 0 55 -85 0 -85 0 0 -55z"/>
<path d="M6625 5358 c1 -31 7 -54 14 -56 7 -2 46 -1 87 3 l74 7 0 49 0 49 -89
0 -88 0 2 -52z"/>
<path d="M6820 5360 l0 -50 95 0 95 0 0 50 0 50 -95 0 -95 0 0 -50z"/>
<path d="M7040 5360 l0 -50 100 0 100 0 0 50 0 50 -100 0 -100 0 0 -50z"/>
<path d="M7270 5360 l0 -50 115 0 115 0 0 50 0 50 -115 0 -115 0 0 -50z"/>
<path d="M7520 5360 l0 -50 125 0 125 0 0 50 0 50 -35 0 c-19 0 -46 -5 -60
-12 -21 -9 -31 -9 -46 0 -10 7 -39 12 -64 12 l-45 0 0 -50z"/>
<path d="M8390 5360 l0 -50 150 0 150 0 0 50 0 50 -150 0 -150 0 0 -50z"/>
<path d="M8712 5363 l3 -48 161 -3 162 -2 -3 47 -3 48 -162 3 -161 3 3 -48z"/>
<path d="M9060 5358 l0 -48 176 0 175 0 -3 45 -3 45 -173 3 -172 2 0 -47z"/>
<path d="M9568 5402 l-138 -3 0 -44 0 -45 175 0 175 0 0 45 c0 25 -3 45 -7 46
-34 3 -87 4 -205 1z"/>
<path d="M10624 5401 c-2 -2 -4 -24 -4 -48 l0 -43 220 0 220 0 0 45 0 44 -216
3 c-119 2 -218 1 -220 -1z"/>
<path d="M11090 5358 l0 -48 235 0 235 0 0 45 0 44 -235 3 -235 3 0 -47z"/>
<path d="M3370 5345 l0 -55 35 0 35 0 0 55 0 55 -35 0 -35 0 0 -55z"/>
<path d="M9810 5355 l0 -45 185 0 185 0 0 45 0 45 -185 0 -185 0 0 -45z"/>
<path d="M10210 5355 l0 -45 190 0 190 0 0 45 0 45 -190 0 -190 0 0 -45z"/>
<path d="M7270 5233 l0 -63 115 0 115 0 0 59 0 60 -115 3 -115 3 0 -62z"/>
<path d="M7643 5292 l-123 -3 0 -60 0 -61 123 7 c67 4 123 8 125 10 2 1 2 27
0 56 l-3 54 -122 -3z"/>
<path d="M7794 5291 c-2 -2 -4 -28 -4 -58 l0 -53 130 0 130 0 0 58 0 57 -126
0 c-69 0 -128 -2 -130 -4z"/>
<path d="M8080 5240 l0 -60 140 0 140 0 0 54 c0 53 -1 54 -32 59 -18 3 -81 6
-140 7 l-108 0 0 -60z"/>
<path d="M8390 5238 l0 -58 150 0 150 0 0 59 0 59 -66 0 c-61 0 -65 -1 -45
-14 27 -19 27 -55 1 -79 -29 -27 -70 -7 -70 34 0 16 5 33 10 36 23 14 6 20
-60 20 l-70 0 0 -57z"/>
<path d="M8717 5293 c-1 -1 0 -26 1 -57 l4 -56 152 0 c84 0 155 2 157 4 2 2 3
28 1 58 l-4 53 -155 0 c-85 0 -155 -1 -156 -2z"/>
<path d="M9064 5291 c-2 -2 -4 -26 -4 -53 l0 -48 69 0 c38 0 77 -3 87 -7 16
-6 15 -3 -4 21 -27 35 -28 50 -4 74 16 16 13 17 -61 17 -43 0 -80 -2 -83 -4z"/>
<path d="M9273 5283 c21 -25 22 -51 0 -75 -15 -17 -13 -18 60 -18 l77 0 0 50
0 50 -59 0 c-33 0 -68 3 -78 7 -17 6 -17 6 0 -14z"/>
<path d="M5096 5283 c-1 -1 -375 -3 -831 -5 -457 -2 -770 -4 -696 -6 l133 -3
-7 -37 c-3 -20 -9 -47 -12 -59 -5 -23 -5 -23 126 -23 97 0 133 3 136 13 2 6 6
33 10 60 l6 47 245 0 244 0 0 -60 0 -60 120 0 120 0 0 60 0 59 260 3 260 3 0
-57 0 -58 120 0 120 0 0 54 0 54 80 4 80 3 0 -57 0 -58 70 0 70 0 0 65 0 65
-326 -3 c-179 -1 -327 -3 -328 -4z"/>
<path d="M5770 5225 l0 -65 70 0 70 0 0 65 0 65 -70 0 -70 0 0 -65z"/>
<path d="M5930 5225 l0 -65 70 0 70 0 0 65 0 65 -70 0 -70 0 0 -65z"/>
<path d="M6090 5225 l0 -65 75 0 75 0 0 65 0 65 -75 0 -75 0 0 -65z m98 43
c30 -30 0 -75 -42 -64 -29 7 -43 41 -26 61 15 18 52 19 68 3z"/>
<path d="M6260 5225 l0 -65 75 0 75 0 0 65 0 65 -75 0 -75 0 0 -65z"/>
<path d="M6430 5225 l0 -66 85 2 85 2 0 63 0 64 -85 0 -85 0 0 -65z m138 18
c2 -24 -1 -33 -17 -38 -46 -14 -81 18 -60 56 8 15 19 19 42 17 28 -3 32 -7 35
-35z"/>
<path d="M6628 5230 l-3 -60 88 0 87 0 0 60 0 60 -84 0 -84 0 -4 -60z"/>
<path d="M6820 5230 l0 -60 95 0 95 0 0 60 0 60 -95 0 -95 0 0 -60z m138 17
c6 -53 -38 -75 -73 -37 -15 17 -16 24 -7 46 10 21 18 25 45 22 27 -2 33 -8 35
-31z"/>
<path d="M7040 5230 l0 -60 100 0 100 0 0 60 0 60 -100 0 -100 0 0 -60z"/>
<path d="M9430 5240 l0 -50 175 0 175 0 0 50 0 50 -175 0 -175 0 0 -50z"/>
<path d="M9810 5240 l0 -50 185 0 185 0 0 50 0 50 -185 0 -185 0 0 -50z"/>
<path d="M10210 5240 l0 -50 101 0 100 0 -21 27 c-14 18 -19 35 -15 50 5 23 4
23 -80 23 l-85 0 0 -50z"/>
<path d="M10472 5270 c10 -16 9 -24 -10 -50 l-23 -30 76 0 75 0 0 50 0 50 -65
0 c-62 0 -65 -1 -53 -20z"/>
<path d="M10622 5243 l3 -48 40 0 c22 1 120 2 218 3 l177 2 0 45 0 45 -221 0
-221 0 4 -47z"/>
<path d="M11090 5245 l0 -45 235 0 235 1 0 45 0 44 -235 0 -235 0 0 -45z"/>
<path d="M3343 5273 c9 -2 23 -2 30 0 6 3 -1 5 -18 5 -16 0 -22 -2 -12 -5z"/>
<path d="M3370 5200 l0 -60 40 0 40 0 0 60 0 60 -40 0 -40 0 0 -60z"/>
<path d="M11323 5183 l-233 -3 0 -45 0 -45 235 0 235 0 0 50 c0 28 -1 49 -2
48 -2 -2 -108 -4 -235 -5z"/>
<path d="M9988 5173 l-178 -3 0 -50 0 -50 73 0 c39 0 123 3 185 7 l112 6 0 49
c0 26 -3 47 -7 46 -5 -1 -88 -4 -185 -5z"/>
<path d="M10210 5128 l0 -48 193 0 192 0 -1 46 -1 45 -192 2 -191 2 0 -47z"/>
<path d="M10627 5173 c-4 -3 -7 -26 -7 -50 l0 -43 83 0 c46 0 145 3 220 7
l137 6 0 44 0 43 -213 0 c-118 0 -217 -3 -220 -7z"/>
<path d="M8388 5112 l-3 -52 153 0 152 0 0 56 0 56 -149 -3 -149 -4 -4 -53z"/>
<path d="M8720 5115 l0 -56 158 3 157 3 0 50 0 50 -157 3 -158 3 0 -56z"/>
<path d="M9060 5114 l0 -57 77 7 c42 3 119 6 172 6 l96 0 0 50 0 50 -172 0
-173 0 0 -56z"/>
<path d="M9430 5120 l0 -50 175 0 175 0 0 50 0 50 -175 0 -175 0 0 -50z"/>
<path d="M7040 5098 l0 -58 100 0 100 0 0 58 0 58 -100 -1 -100 0 0 -57z"/>
<path d="M7270 5100 l0 -60 115 0 115 0 0 60 0 60 -115 0 -115 0 0 -60z"/>
<path d="M7520 5100 l0 -60 51 0 c45 0 50 2 44 19 -4 13 1 27 15 41 19 19 24
20 43 7 12 -8 23 -24 25 -36 3 -17 10 -21 38 -21 l34 0 0 55 0 55 -125 0 -125
0 0 -60z"/>
<path d="M7790 5105 l0 -55 128 0 c71 0 131 2 133 4 2 2 2 27 1 55 l-4 51
-129 0 -129 0 0 -55z"/>
<path d="M8080 5105 l0 -56 138 3 137 3 3 53 3 52 -140 0 -141 0 0 -55z"/>
<path d="M4956 5143 c-2 -2 -233 -5 -512 -6 -280 -1 -393 -3 -250 -5 l258 -2
-7 -65 -7 -65 126 0 126 0 0 65 0 65 260 0 260 0 0 -60 0 -60 120 0 120 0 0
59 0 59 80 4 80 3 0 -57 0 -58 65 0 c42 0 65 -4 65 -11 0 -9 -26 -10 -92 -6
-51 3 -171 3 -265 0 l-173 -6 0 -58 c0 -32 3 -60 8 -62 4 -2 91 -8 195 -11
139 -6 187 -5 187 4 0 8 -23 11 -75 8 l-76 -3 3 60 3 60 78 3 77 3 0 -71 0
-70 70 0 70 0 0 143 0 142 -395 1 c-217 0 -397 -1 -399 -3z"/>
<path d="M5770 5085 l0 -65 70 0 70 0 0 64 0 63 -70 2 -70 2 0 -66z"/>
<path d="M5930 5085 l0 -65 70 0 70 0 0 65 0 65 -70 0 -70 0 0 -65z"/>
<path d="M6090 5085 l0 -65 75 0 75 0 0 65 0 65 -75 0 -75 0 0 -65z"/>
<path d="M6260 5085 c0 -65 0 -65 29 -65 15 0 49 3 75 6 l46 7 0 58 0 59 -75
0 -75 0 0 -65z"/>
<path d="M6430 5090 l0 -60 85 0 85 0 0 60 0 60 -85 0 -85 0 0 -60z"/>
<path d="M6628 5090 l4 -60 84 0 84 0 0 60 0 60 -87 0 -88 0 3 -60z"/>
<path d="M6820 5090 l0 -60 95 0 95 0 0 60 0 60 -95 0 -95 0 0 -60z"/>
<path d="M3480 5130 l-155 -6 172 -2 c106 -1 174 2 178 8 4 6 -4 9 -17 8 -13
-1 -93 -5 -178 -8z"/>
<path d="M3670 5098 c0 -13 -3 -40 -6 -60 l-7 -38 137 0 c134 0 136 0 136 23
0 12 3 39 6 60 l7 37 -137 0 c-134 0 -136 0 -136 -22z"/>
<path d="M3372 5053 l3 -58 38 -3 37 -3 0 60 0 61 -40 0 -41 0 3 -57z"/>
<path d="M10693 5063 l-73 -4 0 -44 0 -45 159 0 c87 0 186 3 220 6 l61 7 0 43
0 44 -147 -2 c-82 -1 -181 -4 -220 -5z"/>
<path d="M11090 5025 l0 -45 235 0 235 0 0 45 0 45 -235 0 -235 0 0 -45z"/>
<path d="M9598 5053 l-168 -3 0 -50 0 -49 98 -4 97 -3 -97 -2 c-80 -2 -98 -5
-98 -17 0 -12 19 -15 108 -15 151 0 242 10 242 26 0 7 -15 14 -37 17 l-38 4
38 1 37 2 0 50 c0 28 -3 49 -7 48 -5 -1 -83 -4 -175 -5z"/>
<path d="M9810 4990 l0 -70 185 0 c156 0 185 2 185 15 0 12 -26 15 -152 18
l-153 3 153 2 152 2 0 50 0 50 -185 0 -185 0 0 -70z"/>
<path d="M10210 5011 l0 -50 53 -4 52 -3 -52 -2 c-35 -1 -53 -6 -53 -14 0 -10
42 -12 187 -10 104 2 192 7 197 12 14 13 -9 19 -89 23 l-70 3 76 2 77 2 4 45
3 45 -192 0 -193 0 0 -49z"/>
<path d="M8803 5043 l-81 -4 -4 -69 -3 -70 163 0 c127 0 163 3 160 13 -3 6
-22 15 -44 18 l-39 6 37 2 c36 1 37 2 43 45 4 25 4 49 0 55 -6 11 -45 11 -232
4z"/>
<path d="M9058 4974 l-3 -76 59 6 c32 3 112 6 177 6 97 0 119 3 119 14 0 11
-15 16 -52 19 l-53 3 50 2 50 2 2 50 2 50 -174 0 -173 0 -4 -76z"/>
<path d="M7908 5033 l-118 -4 0 -75 0 -76 129 3 c71 2 131 6 133 9 2 3 2 38 0
78 -2 48 -8 71 -15 70 -7 -1 -65 -4 -129 -5z"/>
<path d="M8080 4965 l0 -75 140 0 140 0 0 75 0 75 -140 0 -140 0 0 -75z"/>
<path d="M8381 4965 l1 -75 93 0 c51 0 120 3 154 6 l61 7 0 68 0 69 -155 0
-155 0 1 -75z m132 -42 c-7 -2 -21 -2 -30 0 -10 3 -4 5 12 5 17 0 24 -2 18 -5z"/>
<path d="M7268 4949 l-3 -81 50 6 c28 3 80 6 118 6 l67 0 0 75 0 75 -114 0
-114 0 -4 -81z"/>
<path d="M7520 4955 l0 -75 125 0 125 0 0 75 0 75 -125 0 -125 0 0 -75z"/>
<path d="M6513 5013 l-83 -4 0 -69 0 -70 85 0 85 0 0 75 c0 41 -1 74 -2 73 -2
-1 -40 -4 -85 -5z"/>
<path d="M6630 5018 c-1 -2 -2 -36 -3 -76 l-2 -72 88 0 87 0 0 75 0 75 -85 0
c-47 0 -85 -1 -85 -2z"/>
<path d="M6820 4945 l0 -75 95 0 95 0 0 75 0 75 -95 0 -95 0 0 -75z"/>
<path d="M7040 4945 l0 -75 100 0 100 0 0 75 0 75 -100 0 -100 0 0 -75z"/>
<path d="M4830 4998 c-146 -4 -290 -8 -320 -7 -30 0 -98 1 -150 2 -200 3
-1012 -12 -1018 -19 -4 -4 66 -4 156 -1 l164 7 -7 -64 -7 -63 178 -6 c98 -3
275 -3 394 0 l217 6 6 -32 c13 -65 105 -119 156 -92 24 13 66 67 75 96 6 19 2
20 -92 17 -53 -2 -108 1 -122 7 -18 7 90 11 365 13 337 2 354 3 127 5 l-263 3
3 58 3 57 250 3 c146 1 253 6 259 12 11 11 26 11 -374 -2z m-392 -133 c-2 -1
-122 -5 -268 -7 l-265 -4 10 63 9 63 256 2 255 3 3 -59 c2 -32 2 -60 0 -61z"/>
<path d="M5774 5001 c-2 -2 -4 -33 -4 -68 l0 -63 70 0 70 0 0 64 0 64 -66 4
c-36 1 -68 1 -70 -1z"/>
<path d="M6090 4935 l0 -75 38 0 c20 0 54 3 75 6 l37 7 0 68 0 69 -75 0 -75 0
0 -75z"/>
<path d="M6260 4940 l0 -70 75 0 75 0 0 70 0 70 -75 0 -75 0 0 -70z"/>
<path d="M10808 4963 c-149 -3 -178 -6 -178 -18 0 -17 31 -18 273 -8 121 5
157 9 157 20 0 9 -12 12 -37 11 -21 -1 -118 -4 -215 -5z"/>
<path d="M11090 4955 c0 -13 33 -15 235 -15 202 0 235 2 235 15 0 13 -33 15
-235 15 -202 0 -235 -2 -235 -15z"/>
<path d="M3378 4899 l4 -60 31 3 c31 3 32 4 35 61 l3 57 -38 0 -38 0 3 -61z"/>
<path d="M5220 4846 c0 -33 25 -78 51 -91 37 -20 89 -19 118 1 21 15 51 70 51
94 0 6 -41 10 -110 10 -86 0 -110 -3 -110 -14z"/>
<path d="M3550 4833 c98 -4 110 -9 110 -50 0 -40 34 -63 93 -63 28 0 63 6 76
13 23 12 70 81 61 90 -3 3 -102 7 -220 9 -118 3 -172 3 -120 1z"/>
<path d="M5574 4786 c-9 -24 4 -48 23 -44 12 2 18 12 18 28 0 29 -32 41 -41
16z"/>
<path d="M5312 4718 c-25 -25 -6 -68 30 -68 9 0 22 9 28 19 13 25 13 27 -6 45
-19 19 -36 20 -52 4z"/>
<path d="M3702 4698 c-33 -33 17 -88 53 -58 25 21 15 64 -15 68 -14 2 -31 -3
-38 -10z"/>
<path d="M4519 4689 c-10 -20 -9 -25 11 -41 30 -24 63 -8 58 30 -4 37 -51 44
-69 11z"/>
<path d="M3322 4608 c-30 -30 3 -77 40 -57 24 13 23 46 -1 59 -24 13 -24 13
-39 -2z"/>
<path d="M3622 4590 c-18 -11 -41 -34 -52 -52 -81 -134 127 -303 232 -190 54
58 62 112 25 177 -45 80 -134 108 -205 65z m119 -79 c35 -35 35 -40 8 -75 -39
-49 -119 -25 -119 37 0 22 43 67 65 67 9 0 30 -13 46 -29z"/>
<path d="M4190 4185 c-26 -32 13 -81 48 -59 34 22 22 74 -18 74 -10 0 -23 -7
-30 -15z"/>
<path d="M3405 4106 c-50 -23 -77 -60 -83 -115 -8 -89 52 -153 145 -153 77 0
133 59 133 140 0 56 -29 98 -84 123 -48 22 -70 23 -111 5z m90 -86 c24 -27 22
-70 -5 -92 -43 -35 -100 -10 -100 44 0 61 66 91 105 48z"/>
<path d="M4005 4000 c-109 -99 -137 -140 -96 -140 27 0 243 197 239 219 -7 34
-36 17 -143 -79z"/>
<path d="M4254 3895 c-4 -9 -2 -21 4 -27 15 -15 44 -1 40 19 -4 23 -36 29 -44
8z"/>
<path d="M3785 3810 c-8 -27 12 -52 39 -48 16 2 21 10 21 33 0 25 -4 31 -27
33 -19 2 -28 -2 -33 -18z"/>
<path d="M6226 3734 c-19 -18 -20 -28 -6 -55 16 -28 58 -25 72 6 9 21 8 28 -7
45 -22 24 -38 25 -59 4z"/>
<path d="M2989 3676 c-125 -85 -62 -271 92 -269 56 1 80 13 115 58 53 70 37
164 -35 212 -48 32 -124 32 -172 -1z m136 -89 c20 -29 19 -53 -5 -77 -29 -29
-76 -26 -96 6 -45 67 55 137 101 71z"/>
<path d="M3603 3614 c-8 -22 10 -49 32 -49 10 0 22 7 28 16 15 24 1 49 -28 49
-15 0 -28 -7 -32 -16z"/>
<path d="M2820 3455 c-26 -31 13 -82 44 -56 22 18 20 48 -3 61 -25 13 -26 13
-41 -5z"/>
</g>
</svg>
